HIERARCHY
ROOT SpineBase
{
  OFFSET 0.000000 0.000000 0.000000
  CHANNELS 6 Xposition Yposition Zposition Zrotation Xrotation Yrotation
  JOINT SpineMid
  {
    OFFSET -0.000000 31.588330 0.000000
    CHANNELS 3 Zrotation Xrotation Yrotation
    JOINT SpineShoulder
    {
      OFFSET 0.103770 23.453388 -0.905798
      CHANNELS 3 Zrotation Xrotation Yrotation
      JOINT Neck
      {
        OFFSET 0.078467 7.760782 -0.663033
        CHANNELS 3 Zrotation Xrotation Yrotation
        JOINT Head
        {
          OFFSET -4.236613 14.537750 -1.362899
          CHANNELS 3 Zrotation Xrotation Yrotation
          End Site
          {
            OFFSET 0 0 0
          }
        }
      }
      JOINT ShoulderLeft
      {
        OFFSET -16.970400 -5.477526 5.849991
        CHANNELS 3 Zrotation Xrotation Yrotation
        JOINT ElbowLeft
        {
          OFFSET -2.829955 -30.737024 5.684587
          CHANNELS 3 Zrotation Xrotation Yrotation
          JOINT WristLeft
          {
            OFFSET -3.633760 -22.675949 -3.986881
            CHANNELS 3 Zrotation Xrotation Yrotation
            JOINT HandLeft
            {
              OFFSET 0.742816 -3.033663 -0.183906
              CHANNELS 3 Zrotation Xrotation Yrotation
              JOINT HandTipLeft
              {
                OFFSET 0.096838 -7.395792 -1.045120
                CHANNELS 3 Zrotation Xrotation Yrotation
                End Site
                {
                  OFFSET 0 0 0
                }
              }
              JOINT ThumbLeft
              {
                OFFSET -2.342722 -0.938258 -2.934094
                CHANNELS 3 Zrotation Xrotation Yrotation
                End Site
                {
                  OFFSET 0 0 0
                }
              }
            }
          }
        }
      }
      JOINT ShoulderRight
      {
        OFFSET 15.124296 -2.609057 -8.167034
        CHANNELS 3 Zrotation Xrotation Yrotation
        JOINT ElbowRight
        {
          OFFSET 10.228703 -21.599316 -4.544368
          CHANNELS 3 Zrotation Xrotation Yrotation
          JOINT WristRight
          {
            OFFSET -24.337837 -3.235477 -12.493203
            CHANNELS 3 Zrotation Xrotation Yrotation
            JOINT HandRight
            {
              OFFSET -2.878397 0.106743 -1.196343
              CHANNELS 3 Zrotation Xrotation Yrotation
              JOINT HandTipRight
              {
                OFFSET -3.593893 0.528146 -1.971528
                CHANNELS 3 Zrotation Xrotation Yrotation
                End Site
                {
                  OFFSET 0 0 0
                }
              }
              JOINT ThumbRight
              {
                OFFSET 2.031829 -1.896256 -4.206229
                CHANNELS 3 Zrotation Xrotation Yrotation
                End Site
                {
                  OFFSET 0 0 0
                }
              }
            }
          }
        }
      }
    }
  }
  JOINT HipLeft
  {
    OFFSET -6.507377 0.416499 -1.522638
    CHANNELS 3 Zrotation Xrotation Yrotation
    JOINT KneeLeft
    {
      OFFSET -0.384777 -35.299112 -1.055202
      CHANNELS 3 Zrotation Xrotation Yrotation
      JOINT AnkleLeft
      {
        OFFSET 5.903290 -35.384907 9.349708
        CHANNELS 3 Zrotation Xrotation Yrotation
        JOINT FootLeft
        {
          OFFSET -4.375722 -2.371756 -15.231714
          CHANNELS 3 Zrotation Xrotation Yrotation
          End Site
          {
            OFFSET 0 0 0
          }
        }
      }
    }
  }
  JOINT HipRight
  {
    OFFSET 7.289922 1.755944 -5.771718
    CHANNELS 3 Zrotation Xrotation Yrotation
    JOINT KneeRight
    {
      OFFSET 7.560974 -35.210997 -3.109899
      CHANNELS 3 Zrotation Xrotation Yrotation
      JOINT AnkleRight
      {
        OFFSET 2.366782 -37.472718 6.117148
        CHANNELS 3 Zrotation Xrotation Yrotation
        JOINT FootRight
        {
          OFFSET -0.525501 -8.949076 -4.807419
          CHANNELS 3 Zrotation Xrotation Yrotation
          End Site
          {
            OFFSET 0 0 0
          }
        }
      }
    }
  }
}
MOTION
Frames: 14
Frame Time: 0.033333
-32.569710 79.876846 309.519054 0.000000 0.000000 17.116981 -0.000000 0.000000 -17.116981 -0.000000 0.000000 0.000000 -0.000000 0.000000 0.000000 0.000000 0.000000 0.000000 -0.000000 0.000000 0.000000 -0.000000 0.000000 0.000000 -0.000000 0.000000 0.000000 -0.000000 0.000000 0.000000 0.000000 0.000000 0.000000 0.000000 0.000000 0.000000 -0.000000 0.000000 0.000000 -0.000000 0.000000 0.000000 -0.000000 0.000000 0.000000 -0.000000 0.000000 0.000000 0.000000 0.000000 0.000000 0.000000 0.000000 0.000000 -0.000000 0.000000 -17.116981 -0.000000 0.000000 0.000000 -0.000000 0.000000 0.000000 0.000000 0.000000 0.000000 -0.000000 0.000000 -17.116981 -0.000000 0.000000 0.000000 -0.000000 0.000000 0.000000 0.000000 0.000000 0.000000
-32.237350 79.926821 309.064976 -0.107653 0.373622 17.092979 -0.006917 -0.388761 -17.092651 -0.000000 0.000000 0.000000 -0.000000 0.000000 0.000000 0.000000 0.000000 0.000000 0.487674 0.790850 0.014035 1.078936 -2.088578 -0.049131 -8.555995 5.299113 1.917977 7.507801 -6.470903 -1.244995 0.000000 0.000000 0.000000 0.000000 0.000000 0.000000 -0.759904 -1.274563 -0.454675 0.712508 1.445662 -0.657783 -0.514758 0.377190 11.830022 2.717392 -4.413182 -19.457842 0.000000 0.000000 0.000000 0.000000 0.000000 0.000000 0.473562 -2.196459 -17.094126 -1.812121 2.394636 -0.027477 2.059459 -4.916335 -0.255265 0.000000 0.000000 0.000000 -0.006917 -0.388761 -17.092651 -0.000000 0.000000 0.000000 -5.222126 15.745642 2.413282 0.000000 0.000000 0.000000
-31.945994 79.968861 308.695038 -0.205268 0.683679 17.091760 -0.004727 -0.713812 -17.090565 -0.305778 0.770138 -0.031873 0.306234 -0.769957 0.035986 0.000000 0.000000 0.000000 1.215452 0.830205 0.056651 2.028888 -3.587901 -0.099573 -14.070578 8.760423 3.711948 11.963437 -11.015932 -1.765617 0.000000 0.000000 0.000000 0.000000 0.000000 0.000000 -1.164246 -3.145808 -0.838632 1.376519 2.695193 -1.214957 -1.212950 0.605231 20.697851 3.573007 -8.363611 -33.192727 0.000000 0.000000 0.000000 0.000000 0.000000 0.000000 0.870342 -4.078748 -17.076243 -3.347724 4.487616 0.022713 3.935410 -9.539582 -0.391446 0.000000 0.000000 0.000000 -0.004727 -0.713812 -17.090565 -0.403173 -0.862736 -0.123218 -9.840856 28.400011 5.817031 0.000000 0.000000 0.000000
-31.695642 80.002964 308.409240 -0.292828 0.930127 17.111681 -0.072536 0.081434 -17.129149 -0.040835 0.074616 -0.028029 0.427824 -1.060887 0.051200 0.000000 0.000000 0.000000 1.692445 1.365784 0.058864 2.855056 -4.501590 -0.181842 -17.735969 11.075482 5.209127 14.698303 -14.180877 -1.999636 0.000000 0.000000 0.000000 0.000000 0.000000 0.000000 -1.697979 -4.358698 -1.181255 1.992388 3.738667 -1.664792 -2.034534 0.721861 27.196241 3.704701 -11.382161 -42.444307 0.000000 0.000000 0.000000 0.000000 0.000000 0.000000 1.188679 -5.647434 -17.070797 -4.602451 6.273405 0.120020 5.540348 -13.552675 -0.424141 0.000000 0.000000 0.000000 0.006205 -0.975109 -17.109252 -0.575348 -1.155689 -0.172491 -14.081284 36.691416 9.182767 0.000000 0.000000 0.000000
-31.486294 80.029132 308.207581 -0.370320 1.112964 17.151462 -0.081845 0.110259 -17.172469 -0.045914 0.095309 -0.034276 0.528266 -1.288970 0.064049 0.000000 0.000000 0.000000 2.081150 1.980859 0.041547 3.561902 -4.832022 -0.320689 -20.099651 12.617348 6.397720 16.307393 -16.285039 -2.122128 0.000000 0.000000 0.000000 0.000000 0.000000 0.000000 -2.191187 -5.326104 -1.459909 2.560366 4.568535 -2.001585 -2.968462 0.771744 31.874862 3.787592 -13.573428 -48.220823 0.000000 0.000000 0.000000 0.000000 0.000000 0.000000 1.427375 -6.904505 -17.083950 -5.570920 7.749907 0.238354 6.776812 -16.649184 -0.390845 0.000000 0.000000 0.000000 -0.089841 -2.141513 -17.372630 -0.901900 -0.401922 0.022351 -17.547599 42.075765 12.149758 0.000000 0.000000 0.000000
-31.317950 80.047364 308.090061 -0.437736 1.232221 17.210168 -0.083700 0.139885 -17.233784 -0.046720 0.113783 -0.038936 1.554293 -1.292655 0.232041 0.000000 0.000000 0.000000 2.380966 2.674781 0.003860 4.153340 -4.578804 -0.535329 -21.414806 13.618155 7.313428 17.054087 -17.523176 -2.225207 0.000000 0.000000 0.000000 0.000000 0.000000 0.000000 -2.638627 -6.045998 -1.666432 3.080497 5.179349 -2.220597 -4.032514 0.792265 35.131909 4.156386 -15.132396 -51.186634 0.000000 0.000000 0.000000 0.000000 0.000000 0.000000 1.585746 -7.852501 -17.120482 -6.247581 8.917080 0.356394 7.553637 -18.586228 -0.340919 0.000000 0.000000 0.000000 -0.041460 -2.454124 -17.471477 -1.109111 -0.351947 0.038469 -20.123401 45.421252 14.453577 0.000000 0.000000 0.000000
-31.281604 80.059146 308.144414 -0.567488 1.200005 17.395650 -0.065456 0.201591 -17.422765 -0.034689 0.146227 -0.044109 2.120126 -1.209281 0.339313 0.000000 0.000000 0.000000 2.739351 3.706679 -0.060050 3.980016 -3.478018 -0.864797 -19.392577 14.298815 7.691645 15.419024 -18.161554 -2.543435 0.000000 0.000000 0.000000 0.000000 0.000000 0.000000 -3.006148 -6.524642 -1.805238 3.574964 5.602711 -2.191463 -6.889547 0.818332 40.005714 5.641792 -16.914091 -53.019907 0.000000 0.000000 0.000000 0.000000 0.000000 0.000000 1.377998 -8.225260 -17.315662 -5.778979 9.657294 0.464316 6.796734 -17.465408 -0.425092 0.000000 0.000000 0.000000 0.353814 -2.484387 -17.655904 -1.467257 -0.479139 0.030668 -22.057078 47.747242 16.220628 0.000000 0.000000 0.000000
-31.209346 80.056774 308.212070 -0.611340 1.185524 17.507248 -0.054360 0.229769 -17.535422 -0.024356 0.155863 -0.045159 2.356000 -1.207538 0.374622 0.000000 0.000000 0.000000 2.860190 4.597138 -0.142914 4.481381 -1.672557 -1.361775 -18.156711 14.558562 8.238496 12.678137 -16.947559 -3.204356 0.000000 0.000000 0.000000 0.000000 0.000000 0.000000 -3.358317 -6.760624 -1.862254 4.212559 5.684326 -2.177381 -7.316220 1.047788 36.865245 6.956998 -15.941061 -47.190091 0.000000 0.000000 0.000000 0.000000 0.000000 0.000000 1.416258 -8.562265 -17.423082 -5.886655 10.207650 0.539889 6.997112 -18.402797 -0.292847 0.000000 0.000000 0.000000 0.524908 -2.617313 -17.795268 -1.758257 -0.314962 0.053177 -22.329547 48.046073 16.554204 0.000000 0.000000 0.000000
-31.132491 80.044048 308.331801 -0.620231 1.129496 17.607197 -0.035190 0.250755 -17.635048 -0.013006 0.160247 -0.043782 2.444611 -1.163700 0.388886 0.000000 0.000000 0.000000 2.779269 5.450760 -0.248828 5.096858 0.443954 -1.889711 -18.323475 14.859456 9.125693 13.228852 -17.859404 -3.406560 0.000000 0.000000 0.000000 0.000000 0.000000 0.000000 -3.655364 -6.645806 -1.776998 4.507813 5.556881 -1.998176 -6.841996 1.117410 35.975505 7.271202 -14.730336 -42.801263 0.000000 0.000000 0.000000 0.000000 0.000000 0.000000 1.492787 -8.619293 -17.520349 -6.038925 10.398882 0.568770 8.785914 -23.935135 0.039637 0.000000 0.000000 0.000000 0.516351 -2.750876 -17.938048 -1.869167 0.094886 0.104141 -20.540885 46.080733 15.036804 0.000000 0.000000 0.000000
-31.043569 80.038854 308.454686 -0.595529 1.081557 17.680810 -0.015271 0.254751 -17.707186 -0.005926 0.159547 -0.040961 2.476705 -1.114447 0.394523 0.000000 0.000000 0.000000 2.634516 6.304477 -0.361011 5.603157 2.298548 -2.342097 -18.947025 15.592398 10.157584 14.536036 -18.427682 -3.429326 0.000000 0.000000 0.000000 0.000000 0.000000 0.000000 -3.918662 -6.372299 -1.625407 4.661079 5.316652 -1.844002 -7.748952 1.303823 32.948222 9.161017 -14.561087 -37.196258 0.000000 0.000000 0.000000 0.000000 0.000000 0.000000 1.513154 -8.613725 -17.593881 -6.206891 10.548756 0.585871 8.548289 -22.940035 0.100313 0.000000 0.000000 0.000000 0.293026 -2.921767 -18.067655 -1.759309 0.687062 0.177910 -20.510675 45.725969 14.944461 0.000000 0.000000 0.000000
-30.968199 80.032252 308.589593 -0.552286 1.021947 17.700456 -0.001220 0.254905 -17.725033 -0.000215 0.158997 -0.037526 2.420138 -1.091954 0.377418 0.000000 0.000000 0.000000 2.394270 7.014616 -0.467765 6.052421 3.853685 -2.688694 -21.001704 17.219399 11.588824 17.051709 -21.147341 -3.065565 0.000000 0.000000 0.000000 0.000000 0.000000 0.000000 -4.150485 -6.124031 -1.501426 4.609246 5.187191 -1.554450 -8.037046 1.494362 28.632432 11.305522 -14.428605 -30.325576 0.000000 0.000000 0.000000 0.000000 0.000000 0.000000 1.449460 -8.505739 -17.618839 -6.202760 10.644604 0.598786 8.266502 -22.056456 0.076492 0.000000 0.000000 0.000000 0.177384 -2.982860 -18.120367 -1.765048 1.129593 0.224304 -20.446744 45.396073 14.858682 0.000000 0.000000 0.000000
-30.896997 80.034106 308.702309 -0.502776 0.998055 17.775112 0.011449 0.254085 -17.797766 0.005488 0.161501 -0.034080 2.368183 -1.056109 0.376636 0.000000 0.000000 0.000000 2.127106 7.631033 -0.567935 6.255278 4.610411 -2.810707 -25.222146 15.568877 11.755274 21.804355 -20.915718 -2.000588 0.000000 0.000000 0.000000 0.000000 0.000000 0.000000 -4.727942 -6.254519 -1.514347 5.149042 5.297988 -1.390261 -11.123189 2.059445 26.872391 15.449257 -17.241754 -27.678637 0.000000 0.000000 0.000000 0.000000 0.000000 0.000000 1.364110 -8.468085 -17.697923 -6.252853 10.789440 0.614025 7.845458 -20.613980 -0.169842 0.000000 0.000000 0.000000 0.019934 -3.040061 -18.220207 -1.733498 1.462297 0.255654 -20.402419 45.158295 14.806263 0.000000 0.000000 0.000000
-30.835916 80.045152 308.785507 -0.442397 1.037956 17.873290 0.031884 0.260163 -17.893548 0.021115 0.166948 -0.029391 2.200314 -1.085330 0.369441 0.000000 0.000000 0.000000 1.827785 8.131823 -0.662220 6.394288 4.982478 -2.831777 -29.976831 11.305493 10.423684 27.908775 -19.656388 -0.710384 0.000000 0.000000 0.000000 0.000000 0.000000 0.000000 -5.171563 -5.811140 -1.207109 4.939659 5.032238 -1.270499 -10.380705 1.964120 25.095278 15.229293 -15.644320 -24.686314 0.000000 0.000000 0.000000 0.000000 0.000000 0.000000 1.236069 -8.550907 -17.799389 -6.343040 11.006055 0.633620 9.772384 -26.366721 -0.340113 0.000000 0.000000 0.000000 -0.177905 -3.171161 -18.348122 -1.695116 1.762240 0.288061 -20.404798 44.975724 14.800973 0.000000 0.000000 0.000000
-30.803905 80.080823 308.857257 -0.390973 1.081351 18.041201 0.071688 0.264641 -18.058509 0.043734 0.175395 -0.023654 1.953276 -1.025484 0.381353 0.000000 0.000000 0.000000 1.488668 8.661408 -0.763593 6.447670 4.462045 -2.629384 -34.307778 7.100326 8.514901 32.750168 -17.645503 -0.134163 0.000000 0.000000 0.000000 0.000000 0.000000 0.000000 -4.783561 -5.506049 -1.096359 3.380984 5.134564 -0.799250 -7.240412 1.385127 21.368678 13.558675 -12.875266 -20.828065 0.000000 0.000000 0.000000 0.000000 0.000000 0.000000 1.089315 -8.582263 -17.972711 -6.320605 11.208337 0.662675 13.338682 -36.233852 0.936961 0.000000 0.000000 0.000000 -0.346897 -3.234267 -18.528436 -1.608649 1.898870 0.301789 -20.488292 44.874656 14.839231 0.000000 0.000000 0.000000
